<?xml version="1.0" encoding="utf-8"?>
<!-- Generator: Adobe Illustrator 19.1.0, SVG Export Plug-In . SVG Version: 6.00 Build 0)  -->
<svg version="1.1" id="Layer_1" xmlns="http://www.w3.org/2000/svg" xmlns:xlink="http://www.w3.org/1999/xlink" x="0px" y="0px"
	 viewBox="10 34 20 20" style="enable-background:new 10 34 20 20;" xml:space="preserve">
<style type="text/css">
	.st0{fill:none;stroke:#000000;stroke-miterlimit:10;}
	.st1{fill:#FFFFFF;}
	.st2{fill:#FFFFFF;stroke:#000000;stroke-miterlimit:10;}
	.st3{fill:#B9A0C8;}
</style>
<path class="st0" d="M29,40.6c0,3.4-3.1,6.2-7.7,10.4L20,52.2L18.7,51c-4.6-4.2-7.7-7-7.7-10.4c0-2.7,2.1-4.9,4.9-4.9
	c1.6,0,3.1,0.7,4.1,1.9c1-1.1,2.5-1.9,4.1-1.9C26.9,35.7,29.1,37.8,29,40.6z M23.9,38.2c-1.9,0-3.2,1.6-3.9,2.8
	c-0.7-1.2-2.3-2.8-4.2-2.8c-0.9,0-2.3,0.5-2.3,2.3c0,2.5,2.2,4.5,5.6,7.6l0.9,0.9l0.9-0.9c3.3-3,5.6-5.4,5.6-7.6
	C26.5,38.7,25,38.2,23.9,38.2z"/>
</svg>
